<svg xmlns="http://www.w3.org/2000/svg" width="2400" height="1350" viewBox="0 0 2400 1350" role="img" aria-label="Minimalist key fob with digital data pulse">
  <defs>
    <linearGradient id="g0" x1="0" y1="0" x2="1" y2="1">
      <stop offset="0" stop-color="#05070c"/>
      <stop offset="1" stop-color="#0b1020"/>
    </linearGradient>
    <radialGradient id="goldGlow" cx="30%" cy="24%" r="70%">
      <stop offset="0" stop-color="rgba(212,175,55,.26)"/>
      <stop offset="0.55" stop-color="rgba(212,175,55,.08)"/>
      <stop offset="1" stop-color="rgba(212,175,55,0)"/>
    </radialGradient>
    <radialGradient id="blueGlow" cx="80%" cy="18%" r="70%">
      <stop offset="0" stop-color="rgba(120,180,255,.10)"/>
      <stop offset="1" stop-color="rgba(120,180,255,0)"/>
    </radialGradient>
    <filter id="blur" x="-20%" y="-20%" width="140%" height="140%">
      <feGaussianBlur stdDeviation="8"/>
    </filter>
  </defs>

  <rect width="2400" height="1350" fill="url(#g0)"/>
  <rect width="2400" height="1350" fill="url(#goldGlow)"/>
  <rect width="2400" height="1350" fill="url(#blueGlow)"/>

  <g opacity="0.8"><path d="M 2359.1 709.8 Q 1481.4 1239.7 815.6 1339.9" stroke="rgba(243,210,122,0.114)" stroke-width="1.61" fill="none"/><path d="M 1691.8 -62.3 Q 1007.0 655.8 948.9 1121.7" stroke="rgba(243,210,122,0.063)" stroke-width="1.47" fill="none"/><path d="M 455.8 180.9 Q 845.2 565.7 672.1 580.7" stroke="rgba(243,210,122,0.099)" stroke-width="1.77" fill="none"/><path d="M 2420.3 1358.6 Q 1066.0 634.6 -113.0 288.0" stroke="rgba(243,210,122,0.086)" stroke-width="1.52" fill="none"/><path d="M 89.0 -10.1 Q 1459.3 716.6 2401.5 1045.8" stroke="rgba(243,210,122,0.064)" stroke-width="1.17" fill="none"/><path d="M 907.0 73.6 Q 997.4 273.9 1294.9 38.2" stroke="rgba(243,210,122,0.087)" stroke-width="1.30" fill="none"/><path d="M 2284.5 1077.7 Q 1176.4 318.8 368.3 -32.1" stroke="rgba(243,210,122,0.119)" stroke-width="1.97" fill="none"/><path d="M 1839.3 77.4 Q 904.8 549.9 703.0 777.2" stroke="rgba(243,210,122,0.122)" stroke-width="1.96" fill="none"/><path d="M 1422.5 1175.8 Q 1867.0 942.9 2244.9 787.5" stroke="rgba(243,210,122,0.073)" stroke-width="1.55" fill="none"/><path d="M 2006.3 1226.4 Q 1635.8 1341.8 1499.8 1172.6" stroke="rgba(243,210,122,0.083)" stroke-width="1.84" fill="none"/><path d="M 2001.8 656.6 Q 1289.3 1258.6 909.6 1426.9" stroke="rgba(243,210,122,0.118)" stroke-width="1.27" fill="none"/><path d="M 250.1 219.5 Q 431.8 567.6 948.4 899.9" stroke="rgba(243,210,122,0.127)" stroke-width="2.18" fill="none"/><path d="M 1590.0 1246.5 Q 914.7 744.1 368.9 680.2" stroke="rgba(243,210,122,0.114)" stroke-width="1.91" fill="none"/><path d="M 1597.6 379.7 Q 1721.7 290.4 1735.5 -61.0" stroke="rgba(243,210,122,0.083)" stroke-width="2.00" fill="none"/></g>
  <g><circle cx="2044.8" cy="613.4" r="5.6" fill="rgba(212,175,55,0.118)"/><circle cx="425.5" cy="484.3" r="5.5" fill="rgba(212,175,55,0.117)"/><circle cx="1037.4" cy="569.5" r="2.4" fill="rgba(212,175,55,0.103)"/><circle cx="2385.8" cy="664.9" r="2.9" fill="rgba(212,175,55,0.094)"/><circle cx="2095.1" cy="1101.5" r="5.6" fill="rgba(212,175,55,0.122)"/><circle cx="2323.4" cy="160.7" r="3.9" fill="rgba(212,175,55,0.111)"/><circle cx="1319.4" cy="740.7" r="5.9" fill="rgba(212,175,55,0.099)"/><circle cx="632.6" cy="445.4" r="5.3" fill="rgba(212,175,55,0.134)"/><circle cx="1080.9" cy="834.3" r="5.0" fill="rgba(212,175,55,0.122)"/><circle cx="321.2" cy="950.8" r="5.1" fill="rgba(212,175,55,0.111)"/><circle cx="2130.5" cy="1337.0" r="2.4" fill="rgba(212,175,55,0.089)"/><circle cx="250.9" cy="838.6" r="3.9" fill="rgba(212,175,55,0.069)"/><circle cx="1973.1" cy="1333.8" r="2.9" fill="rgba(212,175,55,0.055)"/><circle cx="1367.4" cy="985.8" r="5.1" fill="rgba(212,175,55,0.091)"/><circle cx="954.7" cy="844.5" r="5.3" fill="rgba(212,175,55,0.120)"/><circle cx="327.0" cy="1147.2" r="4.1" fill="rgba(212,175,55,0.078)"/><circle cx="2285.1" cy="300.8" r="2.5" fill="rgba(212,175,55,0.056)"/><circle cx="668.9" cy="180.8" r="2.2" fill="rgba(212,175,55,0.102)"/><circle cx="2392.2" cy="822.2" r="3.7" fill="rgba(212,175,55,0.111)"/><circle cx="758.4" cy="658.9" r="2.1" fill="rgba(212,175,55,0.094)"/><circle cx="1089.2" cy="373.1" r="2.5" fill="rgba(212,175,55,0.121)"/><circle cx="153.9" cy="612.1" r="3.6" fill="rgba(212,175,55,0.133)"/><circle cx="203.2" cy="1343.1" r="4.5" fill="rgba(212,175,55,0.132)"/><circle cx="1602.0" cy="257.0" r="4.1" fill="rgba(212,175,55,0.132)"/><circle cx="2304.3" cy="1062.9" r="3.2" fill="rgba(212,175,55,0.074)"/><circle cx="1682.0" cy="850.4" r="3.8" fill="rgba(212,175,55,0.082)"/><circle cx="997.2" cy="1330.1" r="5.7" fill="rgba(212,175,55,0.126)"/><circle cx="1170.1" cy="484.3" r="2.4" fill="rgba(212,175,55,0.072)"/><circle cx="427.8" cy="1346.7" r="3.4" fill="rgba(212,175,55,0.140)"/><circle cx="861.6" cy="605.5" r="3.8" fill="rgba(212,175,55,0.069)"/><circle cx="1124.2" cy="351.4" r="5.9" fill="rgba(212,175,55,0.102)"/><circle cx="473.5" cy="955.2" r="4.8" fill="rgba(212,175,55,0.133)"/><circle cx="1254.7" cy="621.5" r="3.4" fill="rgba(212,175,55,0.119)"/><circle cx="1129.7" cy="591.6" r="5.5" fill="rgba(212,175,55,0.133)"/><circle cx="396.1" cy="1304.2" r="3.7" fill="rgba(212,175,55,0.121)"/><circle cx="901.5" cy="655.4" r="3.0" fill="rgba(212,175,55,0.092)"/><circle cx="1588.8" cy="1076.1" r="2.6" fill="rgba(212,175,55,0.126)"/><circle cx="2390.2" cy="455.8" r="2.8" fill="rgba(212,175,55,0.104)"/></g>

  <g filter="url(#blur)" opacity="0.9">
    <circle cx="1752.0" cy="621.0" r="210" fill="rgba(255,255,255,.04)"/>
  </g>

  <g><circle cx="1752.0" cy="621.0" r="160" fill="none" stroke="rgba(212,175,55,0.180)" stroke-width="1.2"/><circle cx="1752.0" cy="621.0" r="215" fill="none" stroke="rgba(212,175,55,0.150)" stroke-width="1.2"/><circle cx="1752.0" cy="621.0" r="270" fill="none" stroke="rgba(212,175,55,0.120)" stroke-width="1.2"/><circle cx="1752.0" cy="621.0" r="325" fill="none" stroke="rgba(212,175,55,0.090)" stroke-width="1.2"/></g>

  <g>
    <rect x="1562.0" y="555.0" width="380" height="132" rx="26" fill="rgba(255,255,255,.05)" stroke="rgba(255,255,255,.10)"/>
    <text x="1752.0" y="613.0" text-anchor="middle" font-family="ui-sans-serif,system-ui" font-size="50" fill="rgba(245,247,255,.92)" letter-spacing="2">W3</text>
    <text x="1752.0" y="655.0" text-anchor="middle" font-family="ui-sans-serif,system-ui" font-size="22" fill="rgba(245,247,255,.60)" letter-spacing="1">w3.rent</text>
  </g>

  <g opacity="0.9">
    <circle cx="432.0" cy="1053.0" r="280" fill="rgba(212,175,55,.06)"/>
    <circle cx="432.0" cy="1053.0" r="279" fill="none" stroke="rgba(255,255,255,.06)"/>
  </g>
</svg>